<svg width="86" height="86" viewBox="0 0 86 86" fill="none" xmlns="http://www.w3.org/2000/svg">
<g clip-path="url(#clip0_28_1812)">
<g opacity="0.64">
<path d="M38.0658 82.5902L36.2158 81.8502C35.373 81.5008 35.1058 80.8636 35.3936 80.0825C35.7019 79.2808 36.3597 78.993 37.2025 79.3425L38.4975 79.8563L39.1758 78.1091L39.7308 78.3352L38.0658 82.5902ZM38.3125 80.3291L37.2025 79.8769C36.5652 79.6097 36.1747 79.7947 35.9691 80.288C35.7636 80.7813 35.9486 81.1719 36.5858 81.4391L37.6958 81.8913L38.3125 80.3291Z" fill="#FFFCF6"/>
<path d="M32.5591 80.1235L30.7297 78.993C29.9897 78.5408 29.8047 77.8624 30.1747 77.2458C30.4624 76.7935 30.9147 76.5058 31.4491 76.6702C31.038 76.3002 31.1613 75.9302 31.3669 75.5191C31.5724 75.108 31.8602 74.6969 31.7985 74.3063L32.3741 74.6763C32.4152 74.923 32.0863 75.293 31.9219 75.7041C31.7574 76.1152 31.6341 76.4852 32.1274 76.8141L33.4019 77.5952L34.4296 75.9508L34.9435 76.2591L32.5591 80.1235ZM32.0658 77.3691C31.593 77.0608 31.0997 76.9374 30.7502 77.4924C30.5241 77.883 30.5447 78.2735 31.0174 78.5819L32.3124 79.3835L33.1346 78.0269L32.0658 77.3691Z" fill="#FFFCF6"/>
<path d="M27.3604 76.6081L25.0171 74.5115L25.3665 74.1209L27.2576 75.8065L28.2237 74.717L26.456 73.1548L26.8054 72.7642L28.5732 74.3676L29.6215 73.1959L27.7098 71.4898L28.0593 71.0993L30.4232 73.2165L27.3604 76.6081Z" fill="#FFFCF6"/>
<path d="M23.1018 72.5591L22.6085 71.9013L24.7668 68.4274L20.8612 69.6196L20.3679 68.9619L23.9857 66.1663L24.3351 66.6391L21.3135 68.9619L25.1984 67.7902L25.5273 68.2013L23.369 71.6341L26.3907 69.3113L26.7401 69.7841L23.1018 72.5591Z" fill="#FFFCF6"/>
<path d="M18.9097 66.4754L18.6219 65.941L22.6508 63.7621L22.9386 64.2965L18.9097 66.4754Z" fill="#FFFCF6"/>
<path d="M18.8297 58.9928C19.8986 58.5817 20.7208 58.9928 21.0908 60.0617C21.5019 61.1716 21.2347 62.0144 20.0836 62.4255L17.3497 63.4327L17.1442 62.8572L19.8781 61.85C20.6386 61.5828 20.8853 60.9661 20.5975 60.2261C20.3303 59.5067 19.7547 59.26 19.0147 59.5478L16.2808 60.555L16.0753 59.9794L18.8297 58.9928Z" fill="#FFFCF6"/>
<path d="M15.3145 57.1226L15.1911 56.3004L18.7678 54.2859L14.7595 53.4432L14.6361 52.6209L19.1583 51.922L19.2406 52.4976L15.4995 53.0732L19.4667 53.9159L19.5283 54.4298L15.9928 56.4031L19.7339 55.8276L19.8161 56.4031L15.3145 57.1226Z" fill="#FFFCF6"/>
<path d="M14.6578 46.2279L14.9662 44.1107C15.0895 43.2474 15.6239 42.7951 16.3434 42.8979C16.8778 42.9801 17.3095 43.2885 17.3711 43.8435C17.5561 43.3296 17.9467 43.2679 18.3989 43.309C18.8511 43.3501 19.3445 43.4324 19.6733 43.2268L19.5706 43.9051C19.3445 44.049 18.8922 43.8846 18.4195 43.9051C17.9672 43.9051 17.5767 43.9668 17.4945 44.5423L17.2889 46.0223L19.2211 46.3101L19.1389 46.9268L14.6578 46.2279ZM17.0011 44.6657C17.0834 44.0901 17.0011 43.5968 16.3434 43.5146C15.9117 43.4529 15.5417 43.6585 15.4595 44.1929L15.2334 45.6934L16.8161 45.9196L17.0011 44.6657Z" fill="#FFFCF6"/>
<path d="M16.3207 38.1482C16.7935 36.771 18.109 36.4421 19.3013 36.8532C20.4729 37.2438 21.3362 38.3126 20.8635 39.6899C20.3907 41.0671 19.0751 41.396 17.8829 40.9849C16.6907 40.6149 15.848 39.5254 16.3207 38.1482ZM20.3496 39.546C20.699 38.4976 19.9385 37.7371 19.0752 37.4493C18.2118 37.1615 17.1429 37.2849 16.7935 38.3332C16.4441 39.3815 17.2046 40.1421 18.0679 40.4299C18.9313 40.7176 20.0001 40.5943 20.3496 39.546Z" fill="#FFFCF6"/>
<path d="M19.1584 31.9428C19.8779 30.6889 21.2551 30.6273 22.324 31.2439C23.3928 31.8606 24.0301 33.0733 23.2901 34.3478C22.5501 35.6222 21.1934 35.6633 20.1245 35.0467C19.0556 34.3889 18.4184 33.1761 19.1584 31.9428ZM22.8584 34.0806C23.4134 33.1145 22.8173 32.2306 22.0362 31.7784C21.2345 31.3056 20.1862 31.2439 19.6106 32.1895C19.0557 33.1556 19.6518 34.0395 20.4329 34.4917C21.2345 34.9645 22.2829 35.0261 22.8584 34.0806Z" fill="#FFFCF6"/>
<path d="M21.976 27.851L22.531 27.2137L26.3337 28.7143L24.4632 25.076L25.0182 24.4388L28.4098 27.5015L28.0193 27.9332L25.1826 25.3843L27.0532 28.9815L26.7037 29.3721L22.9215 27.8921L25.7582 30.441L25.3676 30.8726L21.976 27.851Z" fill="#FFFCF6"/>
<path d="M30.1568 21.9713C29.7046 21.478 29.1907 21.5397 28.6974 21.9096C28.3068 22.218 27.9779 22.6702 28.3479 23.1635C28.6768 23.6157 29.3346 23.2457 30.0129 22.9374C30.6913 22.6291 31.4312 22.3824 31.9657 23.1224C32.5412 23.9035 32.0274 24.7874 31.3696 25.2807C30.5474 25.8974 29.5607 26.0207 28.8824 25.1368L29.3551 24.7874C29.8074 25.4041 30.5474 25.2807 31.0818 24.8696C31.534 24.5407 31.904 24.0474 31.4929 23.513C31.1229 23.0196 30.4651 23.3485 29.7868 23.6569C29.1085 23.9652 28.389 24.2324 27.8957 23.5746C27.3202 22.8346 27.7518 21.9919 28.4096 21.4985C29.1496 20.923 29.9924 20.8613 30.609 21.6424L30.1568 21.9713Z" fill="#FFFCF6"/>
<path d="M34.0165 22.549L34.6331 22.2201L34.962 22.8368L34.3454 23.1657L34.0165 22.549Z" fill="#FFFCF6"/>
<path d="M38.4378 16.3188L40.0412 15.8666C40.4317 15.7638 40.9456 15.62 41.2334 15.7022C41.5623 15.7844 41.8912 16.0311 42.0145 16.4833C42.1584 16.9561 41.9939 17.3672 41.6239 17.6549C42.1995 17.6138 42.6106 17.9427 42.7545 18.4977C42.9395 19.1349 42.6312 19.8955 41.7678 20.1422L39.6506 20.7383L38.4378 16.3188ZM40.1028 20.0394L41.5828 19.6283C42.0967 19.4844 42.3228 19.0938 42.1995 18.6005C42.035 18.0249 41.5212 18.0044 41.0278 18.1277L39.6917 18.5183L40.1028 20.0394ZM39.5478 18.0455L40.7195 17.7372C41.3978 17.5522 41.5828 17.2438 41.4595 16.7916C41.295 16.175 40.8428 16.2161 40.3289 16.3599L39.1573 16.6683L39.5478 18.0455Z" fill="#FFFCF6"/>
<path d="M45.7946 14.7591L46.4729 14.6974L48.6724 19.0757L47.994 19.1373L47.3774 17.8218L45.4657 18.0068L45.0752 19.4251L44.438 19.4868L45.7946 14.7591ZM45.5891 17.4724L47.1307 17.3285L46.1646 15.2935L45.5891 17.4724Z" fill="#FFFCF6"/>
<path d="M50.5855 14.5317L51.2227 14.5934L53.2988 18.4784L53.6071 14.7989L54.1827 14.8401L53.8127 19.4034L53.1549 19.3623L51.0788 15.5184L50.7705 19.1567L50.1949 19.1156L50.5855 14.5317Z" fill="#FFFCF6"/>
<path d="M57.0821 15.3536L57.6577 15.5181L57.0616 17.7175L59.8982 16.1142L60.6382 16.3197L58.2949 17.5942L59.5077 20.7391L58.7677 20.5336L57.781 17.8614L56.856 18.3342L56.4244 19.8758L55.8488 19.7114L57.0821 15.3536Z" fill="#FFFCF6"/>
<path d="M66.0452 18.6835L66.5591 18.9918L65.5313 20.6774L67.5869 21.9107L68.6146 20.2251L69.1285 20.5335L66.7441 24.439L66.2302 24.1307L67.3197 22.3423L65.2641 21.109L64.1747 22.8973L63.6608 22.589L66.0452 18.6835Z" fill="#FFFCF6"/>
<path d="M73.0326 23.5348C74.1015 24.5215 73.8753 25.8576 73.0326 26.7826C72.1898 27.7076 70.8948 28.057 69.8054 27.0909C68.7159 26.1248 68.9626 24.7682 69.8054 23.8432C70.6481 22.9182 71.9431 22.5687 73.0326 23.5348ZM70.1548 26.7004C70.977 27.4404 71.9842 27.0498 72.5803 26.3715C73.1765 25.6931 73.5053 24.6654 72.6831 23.9254C71.8609 23.1854 70.8537 23.5759 70.2576 24.2543C69.6615 24.9326 69.3326 25.9604 70.1548 26.7004Z" fill="#FFFCF6"/>
<path d="M76.5465 28.2007L75.6216 26.9879L76.0121 26.6796L78.2526 29.5779L77.8621 29.8862L76.9371 28.6735L73.7305 31.1401L73.3605 30.6468L76.5465 28.2007Z" fill="#FFFCF6"/>
<path d="M79.5084 31.5709L81.0089 34.3458L80.5567 34.5925L79.3439 32.352L78.0695 33.0508L79.2 35.1269L78.7478 35.3736L77.6173 33.2975L76.24 34.0581L77.4734 36.3192L77.0211 36.5658L75.5 33.7703L79.5084 31.5709Z" fill="#FFFCF6"/>
<path d="M82.0337 36.7317L82.2392 37.3072L78.4159 38.6639L79.2176 40.9455L78.7242 41.11L77.717 38.2528L82.0337 36.7317Z" fill="#FFFCF6"/>
</g>
<path d="M41.2748 48.0607C40.6241 47.9728 40.1985 47.3336 40.3685 46.6994C40.5271 46.1074 41.1694 45.7893 41.7364 46.0219L49.3731 49.1549L41.2748 48.0607Z" fill="#FCD043"/>
<path d="M50.4661 41.0568C50.554 40.4061 51.1933 39.9805 51.8275 40.1505C52.4194 40.3091 52.7375 40.9514 52.505 41.5183L49.372 49.1551L50.4661 41.0568Z" fill="#FCD043"/>
<path d="M44.4504 42.6379C44.0525 42.1157 44.2036 41.3627 44.7722 41.0344C45.3029 40.728 45.982 40.9572 46.2185 41.5226L49.4031 49.1379L44.4504 42.6379Z" fill="#FCD043"/>
<path d="M55.9058 44.1838C56.428 43.7859 57.181 43.937 57.5093 44.5056C57.8157 45.0363 57.5865 45.7154 57.0211 45.9519L49.4058 49.1365L55.9058 44.1838Z" fill="#FCD043"/>
<path d="M57.4691 50.2503C58.1198 50.3382 58.5454 50.9775 58.3754 51.6117C58.2168 52.2036 57.5745 52.5217 57.0075 52.2891L49.3708 49.1562L57.4691 50.2503Z" fill="#FCD043"/>
<path d="M48.2749 57.2547C48.187 57.9054 47.5477 58.331 46.9135 58.1611C46.3215 58.0025 46.0034 57.3601 46.236 56.7932L49.369 49.1564L48.2749 57.2547Z" fill="#FCD043"/>
<path d="M54.3584 55.638C54.7564 56.1602 54.6053 56.9132 54.0366 57.2415C53.5059 57.5479 52.8268 57.3186 52.5904 56.7533L49.4057 49.1379L54.3584 55.638Z" fill="#FCD043"/>
<path d="M42.9048 54.0882C42.3825 54.4861 41.6295 54.335 41.3012 53.7664C40.9948 53.2357 41.2241 52.5565 41.7895 52.3201L49.4048 49.1354L42.9048 54.0882Z" fill="#FCD043"/>
</g>
<defs>
<clipPath id="clip0_28_1812">
<rect width="50.3198" height="70" fill="white" transform="translate(35.5811 85.0781) rotate(-135)"/>
</clipPath>
</defs>
</svg>
